<?xml version="1.0" encoding="UTF-8"?>
<svg width="250px" height="250px" viewBox="0 0 250 250" version="1.1" xmlns="http://www.w3.org/2000/svg" xmlns:xlink="http://www.w3.org/1999/xlink">
    <!-- Generator: Sketch 53.2 (72643) - https://sketchapp.com -->
    <title>jr-logo-primary</title>
    <desc>Created with Sketch.</desc>
    <g id="jr-logo-primary" stroke="none" stroke-width="1" fill="none" fill-rule="evenodd">
        <g id="logo-new">
            <path d="M125,22.7421466 L227.257853,22.7421466 L227.257853,125 C227.257853,181.475453 181.475453,227.257853 125,227.257853 L125,227.257853 C68.524547,227.257853 22.7421466,181.475453 22.7421466,125 L22.7421466,125 C22.7421466,68.524547 68.524547,22.7421466 125,22.7421466 Z" id="teardrop-fill" fill="#DC334A"></path>
            <path d="M125,22.7421466 C68.524547,22.7421466 22.7421466,68.524547 22.7421466,125 C22.7421466,181.475453 68.524547,227.257853 125,227.257853 C181.475453,227.257853 227.257853,181.475453 227.257853,125 L227.257853,22.7421466 L125,22.7421466 Z M125,0.0181791739 L249.981821,0.0181791739 L249.981821,125 C249.981821,194.025554 194.025554,249.981821 125,249.981821 C55.9744464,249.981821 0.0181791739,194.025554 0.0181791739,125 C0.0181791739,55.9744464 55.9744464,0.0181791739 125,0.0181791739 Z" id="teardrop-outline" fill="#FFFFFF" fill-rule="nonzero"></path>
            <path d="M121.908017,55.2918125 L121.908017,49.7770199 L151.087282,49.7770199 C159.099323,49.7770199 166.626445,51.8322808 173.668876,55.9428644 C180.711306,60.053448 186.311996,65.5681854 190.471112,72.4872423 C194.630229,79.4062991 196.709756,86.7975792 196.709756,94.6613043 C196.709756,103.750545 194.757807,111.741808 190.853851,118.635333 C186.949895,125.528859 181.655394,130.91594 174.970188,134.79674 L189.208074,176.61725 L149.403231,176.61725 L138.150708,141.077476 L121.908017,141.077476 L121.908017,55.2918125 Z M121.908017,82.8657756 L121.908017,102.473927 L151.087282,102.473927 C153.281663,102.473927 155.00397,101.899475 156.254257,100.750554 C157.504544,99.6016336 158.129677,97.5719038 158.129677,94.6613043 C158.129677,92.874094 157.453512,91.3805193 156.101161,90.1805353 C154.748811,88.9805513 153.077534,88.3805682 151.087282,88.3805682 L121.908017,88.3805682 L121.908017,82.8657756 Z" id="R" fill="#FFFFFF"></path>
            <path d="M66.6979534,149.136426 L57.2825771,149.136426 L57.2825771,143.621633 L66.6979534,143.621633 C69.4026549,143.621633 71.6735495,142.600386 73.5107053,140.55786 C75.3478611,138.515334 76.2664252,135.809027 76.2664252,132.438859 L76.2664252,89.78411 C76.2664252,88.2621679 77.500203,87.0283901 79.0221451,87.0283901 C80.5440872,87.0283901 81.777865,88.2621679 81.777865,89.78411 L81.777865,132.438859 C81.777865,137.289859 80.3234718,141.28549 77.4146418,144.425874 C74.5058119,147.566258 70.9336181,149.136426 66.6979534,149.136426 Z M66.6979534,160.166011 L57.2825771,160.166011 L57.2825771,154.651218 L66.6979534,154.651218 C72.4135491,154.651218 77.2742842,152.481067 81.2803045,148.140699 C85.2863247,143.800332 87.2893048,138.566437 87.2893048,132.438859 L87.2893048,76.513313 C87.2893048,74.991371 88.5230826,73.7575931 90.0450247,73.7575931 C91.5669667,73.7575931 92.8007446,74.991371 92.8007446,76.513313 L92.8007446,132.438859 C92.8007446,140.098332 90.2619354,146.634317 85.184241,152.047011 C80.1065465,157.459705 73.9445123,160.166011 66.6979534,160.166011 Z M66.6979534,171.195596 L57.2825771,171.195596 L57.2825771,165.680804 L66.6979534,165.680804 C75.4754754,165.680804 82.9388088,162.438342 89.0881775,155.953322 C95.2375461,149.468302 98.3121843,141.630226 98.3121843,132.438859 L98.3121843,63.2425161 C98.3121843,61.720574 99.5459622,60.4867962 101.067904,60.4867962 C102.589846,60.4867962 103.823624,61.720574 103.823624,63.2425161 L103.823624,132.438859 C103.823624,139.434511 102.177863,145.906668 98.8862927,151.855525 C95.5947219,157.804382 91.0912062,162.514887 85.3756104,165.987181 C79.6600147,169.459475 73.4341912,171.195596 66.6979534,171.195596 Z M66.6979534,182.225182 L57.2825771,182.225182 L57.2825771,176.710389 L66.6979534,176.710389 C72.5156133,176.710389 78.0525137,175.535954 83.3088205,173.187049 C88.5651273,170.838144 93.0941587,167.685042 96.8960505,163.727648 C100.697942,159.770254 103.721549,155.059749 105.966962,149.595992 C108.212374,144.132235 109.335064,138.413248 109.335064,132.438859 L109.335064,52.6258785 C109.335064,51.1039364 110.568842,49.8701586 112.090784,49.8701586 C113.612726,49.8701586 114.846504,51.1039364 114.846504,52.6258785 L114.846504,132.438859 C114.846504,139.179195 113.583478,145.613055 111.057389,151.740633 C108.5313,157.868211 105.1122,163.165934 100.799987,167.633959 C96.4877741,172.101985 91.3591245,175.650821 85.4138843,178.280573 C79.4686441,180.910325 73.2300628,182.225182 66.6979534,182.225182 Z" id="J" fill="#FFFFFF"></path>
            <path d="M170.902414,49.5564282 L196.807737,49.5564282 L196.807737,75.461751 C194.087892,68.6915274 190.782933,63.361379 186.892859,59.4713057 C183.002786,55.5812325 177.672638,52.2762733 170.902414,49.5564282 Z" id="arrow" fill="#FFFFFF"></path>
        </g>
    </g>
</svg>