<?xml version="1.0" encoding="UTF-8"?>
<svg width="24px" height="24px" viewBox="0 0 24 24" version="1.1" xmlns="http://www.w3.org/2000/svg" xmlns:xlink="http://www.w3.org/1999/xlink">
    <!-- Generator: Sketch 53.2 (72643) - https://sketchapp.com -->
    <title>jr-logo-titlebar</title>
    <desc>Created with Sketch.</desc>
    <g id="jr-logo-titlebar" stroke="none" stroke-width="1" fill="none" fill-rule="evenodd">
        <g id="logo-new" fill="#FFFFFF">
            <path d="M12,2.18324607 C6.57835651,2.18324607 2.18324607,6.57835651 2.18324607,12 C2.18324607,17.4216435 6.57835651,21.8167539 12,21.8167539 C17.4216435,21.8167539 21.8167539,17.4216435 21.8167539,12 L21.8167539,2.18324607 L12,2.18324607 Z M12,0.0017452007 L23.9982548,0.0017452007 L23.9982548,12 C23.9982548,18.6264532 18.6264532,23.9982548 12,23.9982548 C5.37354685,23.9982548 0.0017452007,18.6264532 0.0017452007,12 C0.0017452007,5.37354685 5.37354685,0.0017452007 12,0.0017452007 Z" id="teardrop-outline" fill-rule="nonzero"></path>
            <path d="M11.7031697,5.308014 L11.7031697,4.77859391 L14.5043791,4.77859391 C15.273535,4.77859391 15.9961387,4.97589896 16.6722121,5.37051498 C17.3482854,5.76513101 17.8859516,6.2945458 18.2852268,6.95877526 C18.684502,7.62300471 18.8841366,8.3325676 18.8841366,9.08748521 C18.8841366,9.96005232 18.6967495,10.7272136 18.3219697,11.388992 C17.9471899,12.0507704 17.4389178,12.5679303 16.797138,12.940487 L18.1639751,16.955256 L14.3427102,16.955256 L13.262468,13.5434377 L11.7031697,13.5434377 L11.7031697,5.308014 Z M11.7031697,7.95511446 L11.7031697,9.83749701 L14.5043791,9.83749701 C14.7150396,9.83749701 14.8803812,9.78234963 15.0004087,9.67205323 C15.1204362,9.56175683 15.180449,9.36690277 15.180449,9.08748521 C15.180449,8.91591303 15.1155372,8.77252985 14.9857115,8.65733139 C14.8558858,8.54213292 14.6954433,8.48453455 14.5043791,8.48453455 L11.7031697,8.48453455 L11.7031697,7.95511446 Z" id="R"></path>
            <path d="M6.40300352,14.3170969 L5.4991274,14.3170969 L5.4991274,13.7876768 L6.40300352,13.7876768 C6.66265487,13.7876768 6.88066076,13.689637 7.05702771,13.4935545 C7.23339467,13.297472 7.32157682,13.0376666 7.32157682,12.7141305 L7.32157682,8.61927456 C7.32157682,8.47316812 7.44001949,8.35472545 7.58612593,8.35472545 C7.73223237,8.35472545 7.85067504,8.47316812 7.85067504,8.61927456 L7.85067504,12.7141305 C7.85067504,13.1798264 7.71105329,13.563407 7.43180562,13.8648839 C7.15255794,14.1663607 6.80962734,14.3170969 6.40300352,14.3170969 Z M6.40300352,15.3759371 L5.4991274,15.3759371 L5.4991274,14.846517 L6.40300352,14.846517 C6.95170072,14.846517 7.41833129,14.6381824 7.80290923,14.2215071 C8.18748717,13.8048318 8.37977326,13.302378 8.37977326,12.7141305 L8.37977326,7.34527805 C8.37977326,7.19917161 8.49821593,7.08072894 8.64432237,7.08072894 C8.79042881,7.08072894 8.90887148,7.19917161 8.90887148,7.34527805 L8.90887148,12.7141305 C8.90887148,13.4494399 8.6651458,14.0768944 8.17768713,14.596513 C7.69022847,15.1161317 7.09867318,15.3759371 6.40300352,15.3759371 Z M6.40300352,16.4347772 L5.4991274,16.4347772 L5.4991274,15.9053572 L6.40300352,15.9053572 C7.24564564,15.9053572 7.96212565,15.5940809 8.55246504,14.9715189 C9.14280443,14.348957 9.4379697,13.5965017 9.4379697,12.7141305 L9.4379697,6.07128154 C9.4379697,5.9251751 9.55641237,5.80673243 9.70251881,5.80673243 C9.84862525,5.80673243 9.96706792,5.9251751 9.96706792,6.07128154 L9.96706792,12.7141305 C9.96706792,13.385713 9.80907489,14.0070401 9.49308409,14.5781304 C9.1770933,15.1492207 8.74475579,15.6014291 8.1960586,15.9347694 C7.64736141,16.2681096 7.04968236,16.4347772 6.40300352,16.4347772 Z M6.40300352,17.4936174 L5.4991274,17.4936174 L5.4991274,16.9641973 L6.40300352,16.9641973 C6.96149888,16.9641973 7.49304131,16.8514516 7.99764677,16.6259567 C8.50225222,16.4004619 8.93703923,16.097764 9.30202085,15.7178542 C9.66700246,15.3379444 9.95726872,14.8857359 10.1728283,14.3612152 C10.3883879,13.8366945 10.4961661,13.2876718 10.4961661,12.7141305 L10.4961661,4.78753522 L11.0252644,4.78753522 L11.0252644,12.7141305 C11.0252644,13.3612027 10.9040139,13.9788533 10.6615093,14.5671008 C10.4190048,15.1553483 10.0907712,15.6639296 9.67679875,16.0928601 C9.26282632,16.5217906 8.77047595,16.8624788 8.19973289,17.114935 C7.62898983,17.3673912 7.03008603,17.4936174 6.40300352,17.4936174 Z" id="J"></path>
            <path d="M16.4066318,4.7574171 L18.8935428,4.7574171 L18.8935428,7.2443281 C18.6324376,6.59438663 18.3151615,6.08269238 17.9417145,5.70924535 C17.5682675,5.33579832 17.0565732,5.01852224 16.4066318,4.7574171 Z" id="arrow"></path>
        </g>
    </g>
</svg>