<?xml version="1.0" encoding="UTF-8"?>
<svg width="250px" height="83px" viewBox="0 0 250 83" version="1.1" xmlns="http://www.w3.org/2000/svg" xmlns:xlink="http://www.w3.org/1999/xlink">
    <!-- Generator: Sketch 53.2 (72643) - https://sketchapp.com -->
    <title>android</title>
    <desc>Created with Sketch.</desc>
    <g id="android" stroke="none" stroke-width="1" fill="none" fill-rule="evenodd">
        <g id="ios">
            <path d="M229.447438,-1.3937961e-15 L19.8639167,-1.3937961e-15 C19.0999583,-1.3937961e-15 18.3451667,-1.3937961e-15 17.5832292,0.00416666667 C16.9454167,0.00833333333 16.3126875,0.0204375 15.66875,0.030625 C14.2698202,0.0470870909 12.8741801,0.170158875 11.4939583,0.398770833 C10.1156752,0.632359641 8.78056774,1.07274113 7.53379167,1.70502083 C6.28854044,2.3426494 5.15071879,3.17118235 4.16160417,4.1605625 C3.16729687,5.14716041 2.33846496,6.28753412 1.70697917,7.53783333 C1.0737505,8.785644 0.634667705,10.1227881 0.404895833,11.5030833 C0.172939461,12.8816352 0.0481216263,14.2760845 0.0315625,15.6739167 C0.0122291667,16.3126667 0.0101875,16.9535417 0,17.592375 L0,65.7470833 C0.0101875,66.3939583 0.0122291667,67.020625 0.0315625,67.6677083 C0.0481267042,69.0654712 0.172944541,70.4598508 0.404895833,71.8383333 C0.634033235,73.2194355 1.073142,74.5573472 1.70697917,75.805625 C2.33817823,77.051881 3.16712669,78.1876379 4.16160417,79.16875 C5.14696838,80.1625293 6.28552549,80.9916259 7.53379167,81.624375 C8.78055827,82.258347 10.1155218,82.7013497 11.4939583,82.9385417 C12.8744148,83.1653224 14.2699113,83.2884442 15.66875,83.306875 C16.3126875,83.3210417 16.9454167,83.3291667 17.5832292,83.3291667 C18.3451458,83.3333333 19.1,83.3333333 19.8639167,83.3333333 L229.447438,83.3333333 C230.196188,83.3333333 230.957021,83.3333333 231.705771,83.3291667 C232.340563,83.3291667 232.991604,83.3210417 233.626396,83.306875 C235.02259,83.2894244 236.415459,83.1662947 237.793063,82.9385417 C239.175946,82.6996799 240.515695,82.2567945 241.768479,81.624375 C243.01562,80.9912596 244.153126,80.1621856 245.137646,79.16875 C246.129557,78.1837954 246.960276,77.0488693 247.599313,75.805625 C248.228394,74.5564391 248.663322,73.2186344 248.889104,71.8383333 C249.121427,70.4596617 249.250674,69.0655922 249.275771,67.6677083 C249.283896,67.020625 249.283896,66.3939583 249.283896,65.7470833 C249.300146,64.9902083 249.300146,64.2375 249.300146,63.4683333 L249.300146,19.8669375 C249.300146,19.104 249.300146,18.3471667 249.283896,17.592375 C249.283896,16.9535417 249.283896,16.3126667 249.275771,15.6738333 C249.250679,14.2758801 249.121432,12.881741 248.889104,11.503 C248.662693,10.1235033 248.22779,8.78646516 247.599313,7.53775 C246.313321,5.0316585 244.274111,2.99171958 241.768479,1.70483333 C240.515692,1.07409871 239.175799,0.633834187 237.793063,0.398583333 C236.415698,0.168964132 235.022683,0.0458495102 233.626396,0.0303333333 C232.991604,0.0201666667 232.340563,0.00795833333 231.705771,0.00389583333 C230.957021,-0.000270833333 230.196188,-0.000270833333 229.447438,-0.000270833333 L229.447438,-1.3937961e-15 Z" id="Path" fill="#FFFFFF" fill-rule="nonzero"></path>
            <path d="M17.774625,81.6875 C17.139875,81.6875 16.5204583,81.679375 15.8906875,81.6652083 C14.5860662,81.6482099 13.2844941,81.5346355 11.9966458,81.3254167 C10.7957923,81.1186003 9.63248801,80.7338843 8.54510417,80.1839583 C7.46769105,79.6385889 6.48500368,78.9234851 5.6346875,78.0660417 C4.77206318,77.2186984 4.05388903,76.2359249 3.508625,75.1566667 C2.95735263,74.070394 2.57583934,72.9060408 2.377375,71.7041667 C2.16305075,70.4127393 2.04709244,69.1069026 2.0305,67.7979167 C2.01729167,67.3585417 2,65.895625 2,65.895625 L2,17.7694583 C2,17.7694583 2.01841667,16.3290208 2.03060417,15.9058333 C2.04649131,14.5989209 2.16177531,13.2951106 2.37545833,12.0056875 C2.57428901,10.800521 2.95609765,9.63281014 3.50766667,8.54297917 C4.05092672,7.46446635 4.76511371,6.48095894 5.62254167,5.63058333 C6.47900589,4.77212796 7.46483669,4.05334191 8.54408333,3.5004375 C9.62896805,2.95227834 10.7900738,2.57027614 11.9885,2.36722917 C13.2805778,2.15590862 14.5866684,2.04165851 15.8958125,2.0254375 L17.7756458,2 L231.876792,2 L233.779083,2.02645833 C235.076319,2.04187333 236.370545,2.15510418 237.65075,2.3651875 C238.861308,2.57078139 240.034515,2.95544903 241.131792,3.50654167 C243.293914,4.62080427 245.053191,6.38367281 246.163042,8.5480625 C246.705807,9.63036992 247.081726,10.7885557 247.278042,11.9833125 C247.494269,13.2833154 247.615285,14.5973715 247.640125,15.915 C247.646167,16.505 247.646167,17.13875 247.646167,17.7694583 C247.662625,18.5507083 247.662625,19.2943125 247.662625,20.0440208 L247.662625,63.6454167 C247.662625,64.4022917 247.662625,65.1408333 247.646167,65.8854167 C247.646167,66.5629167 247.646167,67.1835417 247.638042,67.8222917 C247.61374,69.1164076 247.494741,70.4070089 247.282,71.68375 C247.087604,72.8942941 246.708167,74.0677357 246.157,75.1629167 C245.607881,76.2304607 244.893832,77.2047212 244.041167,78.0497917 C243.190086,78.911843 242.205664,79.6311306 241.12575,80.18 C240.031513,80.7341535 238.860033,81.1202922 237.65075,81.3254167 C236.362999,81.535752 235.061302,81.6493337 233.756583,81.6652083 C233.146375,81.679375 232.507417,81.6875 231.887,81.6875 L229.628667,81.6916667 L17.774625,81.6875 Z" id="Path" fill="#DC334A" fill-rule="nonzero"></path>
            <text id="Get-Android-now-on" font-family="Helvetica" font-size="16" font-weight="normal" fill="#FFFFFF">
                <tspan x="77" y="30">Get Android now on</tspan>
            </text>
            <text id="PlayerHQ" font-family="Helvetica" font-size="36" font-weight="normal" fill="#FFFFFF">
                <tspan x="75" y="63">PlayerHQ</tspan>
            </text>
            <path d="M24.45,36.2172375 L24.45,49.1125605 C24.45,50.8274825 23.0950521,52.197193 21.3705729,52.197193 C19.6572917,52.197193 18,50.8163467 18,49.1125605 L18,36.2172375 C18,34.5357231 19.6572917,33.1548767 21.3705729,33.1548767 C23.0614583,33.1548767 24.45,34.5357231 24.45,36.2172375 Z M25.659375,53.7005338 C25.659375,55.5268144 27.1375,56.9967476 28.9739583,56.9967476 L31.2023437,56.9967476 L31.2359375,63.8007565 C31.2359375,67.9098879 37.4171875,67.8764803 37.4171875,63.8007565 L37.4171875,56.9967476 L41.5828125,56.9967476 L41.5828125,63.8007565 C41.5828125,67.8876162 47.7976562,67.898752 47.7976562,63.8007565 L47.7976562,56.9967476 L50.0596354,56.9967476 C51.8736979,56.9967476 53.3518229,55.5268144 53.3518229,53.7005338 L53.3518229,33.7228055 L25.659375,33.7228055 L25.659375,53.7005338 Z M53.4302083,32.6426273 L25.5361979,32.6426273 C25.5361979,27.8764803 28.4028646,23.7339413 32.6580729,21.573585 L30.5192708,17.6426273 C30.2057292,17.0969703 31.0007813,16.7517587 31.2695312,17.2194647 L33.4419271,21.18383 C37.35,19.4577721 41.8403646,19.5468589 45.5692708,21.18383 L47.7304688,17.2306006 C48.0104167,16.7517587 48.7942708,17.1081061 48.4807292,17.6537632 L46.3419271,21.573585 C50.5635417,23.7339413 53.4302083,27.8764803 53.4302083,32.6426273 L53.4302083,32.6426273 Z M34.3153646,26.4622264 C34.3153646,25.8274825 33.8002604,25.2929614 33.1395833,25.2929614 C32.5013021,25.2929614 31.9973958,25.8274825 31.9973958,26.4622264 C31.9973958,27.0969703 32.5125,27.6314914 33.1395833,27.6314914 C33.8002604,27.6314914 34.3153646,27.0969703 34.3153646,26.4622264 Z M47.0138021,26.4622264 C47.0138021,25.8274825 46.4986979,25.2929614 45.8716146,25.2929614 C45.2109375,25.2929614 44.6958333,25.8274825 44.6958333,26.4622264 C44.6958333,27.0969703 45.2109375,27.6314914 45.8716146,27.6314914 C46.4986979,27.6314914 47.0138021,27.0969703 47.0138021,26.4622264 Z M57.6294271,33.1548767 C55.9385417,33.1548767 54.55,34.5023155 54.55,36.2172375 L54.55,49.1125605 C54.55,50.8274825 55.9385417,52.197193 57.6294271,52.197193 C59.3539063,52.197193 61,50.8163467 61,49.1125605 L61,36.2172375 C61,34.5023155 59.3427083,33.1548767 57.6294271,33.1548767 Z" id="icon-android" fill="#FFFFFF" fill-rule="nonzero"></path>
        </g>
    </g>
</svg>