<?xml version="1.0" encoding="UTF-8"?>
<svg width="250px" height="83px" viewBox="0 0 250 83" version="1.1" xmlns="http://www.w3.org/2000/svg" xmlns:xlink="http://www.w3.org/1999/xlink">
    <!-- Generator: Sketch 53.2 (72643) - https://sketchapp.com -->
    <title>ios</title>
    <desc>Created with Sketch.</desc>
    <g id="ios" stroke="none" stroke-width="1" fill="none" fill-rule="evenodd">
        <g fill-rule="nonzero">
            <g id="Group">
                <g id="Path">
                    <path d="M229.447438,5.42101086e-20 L19.8639167,5.42101086e-20 C19.0999583,5.42101086e-20 18.3451667,5.42101086e-20 17.5832292,0.00416666667 C16.9454167,0.00833333333 16.3126875,0.0204375 15.66875,0.030625 C14.2698202,0.0470870909 12.8741801,0.170158875 11.4939583,0.398770833 C10.1156752,0.632359641 8.78056774,1.07274113 7.53379167,1.70502083 C6.28854044,2.3426494 5.15071879,3.17118235 4.16160417,4.1605625 C3.16729687,5.14716041 2.33846496,6.28753412 1.70697917,7.53783333 C1.0737505,8.785644 0.634667705,10.1227881 0.404895833,11.5030833 C0.172939461,12.8816352 0.0481216263,14.2760845 0.0315625,15.6739167 C0.0122291667,16.3126667 0.0101875,16.9535417 0,17.592375 L0,65.7470833 C0.0101875,66.3939583 0.0122291667,67.020625 0.0315625,67.6677083 C0.0481267042,69.0654712 0.172944541,70.4598508 0.404895833,71.8383333 C0.634033235,73.2194355 1.073142,74.5573472 1.70697917,75.805625 C2.33817823,77.051881 3.16712669,78.1876379 4.16160417,79.16875 C5.14696838,80.1625293 6.28552549,80.9916259 7.53379167,81.624375 C8.78055827,82.258347 10.1155218,82.7013497 11.4939583,82.9385417 C12.8744148,83.1653224 14.2699113,83.2884442 15.66875,83.306875 C16.3126875,83.3210417 16.9454167,83.3291667 17.5832292,83.3291667 C18.3451458,83.3333333 19.1,83.3333333 19.8639167,83.3333333 L229.447438,83.3333333 C230.196188,83.3333333 230.957021,83.3333333 231.705771,83.3291667 C232.340563,83.3291667 232.991604,83.3210417 233.626396,83.306875 C235.02259,83.2894244 236.415459,83.1662947 237.793063,82.9385417 C239.175946,82.6996799 240.515695,82.2567945 241.768479,81.624375 C243.01562,80.9912596 244.153126,80.1621856 245.137646,79.16875 C246.129557,78.1837954 246.960276,77.0488693 247.599313,75.805625 C248.228394,74.5564391 248.663322,73.2186344 248.889104,71.8383333 C249.121427,70.4596617 249.250674,69.0655922 249.275771,67.6677083 C249.283896,67.020625 249.283896,66.3939583 249.283896,65.7470833 C249.300146,64.9902083 249.300146,64.2375 249.300146,63.4683333 L249.300146,19.8669375 C249.300146,19.104 249.300146,18.3471667 249.283896,17.592375 C249.283896,16.9535417 249.283896,16.3126667 249.275771,15.6738333 C249.250679,14.2758801 249.121432,12.881741 248.889104,11.503 C248.662693,10.1235033 248.22779,8.78646516 247.599313,7.53775 C246.313321,5.0316585 244.274111,2.99171958 241.768479,1.70483333 C240.515692,1.07409871 239.175799,0.633834187 237.793063,0.398583333 C236.415698,0.168964132 235.022683,0.0458495102 233.626396,0.0303333333 C232.991604,0.0201666667 232.340563,0.00795833333 231.705771,0.00389583333 C230.957021,-0.000270833333 230.196188,-0.000270833333 229.447438,-0.000270833333 L229.447438,5.42101086e-20 Z" fill="#FFFFFF"></path>
                    <path d="M17.5933958,81.5104167 C16.9586458,81.5104167 16.3392292,81.5022917 15.7094583,81.488125 C14.404837,81.4711265 13.1032649,81.3575522 11.8154167,81.1483333 C10.6145631,80.941517 9.45125884,80.556801 8.363875,80.006875 C7.28646188,79.4615056 6.30377451,78.7464018 5.45345833,77.8889583 C4.59083402,77.0416151 3.87265986,76.0588416 3.32739583,74.9795833 C2.77612346,73.8933107 2.39461017,72.7289574 2.19614583,71.5270833 C1.98182158,70.235656 1.86586328,68.9298193 1.84927083,67.6208333 C1.8360625,67.1814583 1.81877083,65.7185417 1.81877083,65.7185417 L1.81877083,17.592375 C1.81877083,17.592375 1.8371875,16.1519375 1.849375,15.72875 C1.86526214,14.4218376 1.98054614,13.1180273 2.19422917,11.8286042 C2.39305984,10.6234377 2.77486848,9.45572681 3.3264375,8.36589583 C3.86969755,7.28738302 4.58388455,6.30387561 5.4413125,5.4535 C6.29777673,4.59504462 7.28360753,3.87625858 8.36285417,3.32335417 C9.44773889,2.77519501 10.6088447,2.3931928 11.8072708,2.19014583 C13.0993486,1.97882529 14.4054392,1.86457518 15.7145833,1.84835417 L17.5944167,1.82291667 L231.695562,1.82291667 L233.597854,1.849375 C234.89509,1.86479 236.189316,1.97802085 237.469521,2.18810417 C238.680079,2.39369806 239.853285,2.7783657 240.950563,3.32945833 C243.112684,4.44372093 244.871961,6.20658948 245.981812,8.37097917 C246.524578,9.45328659 246.900497,10.6114724 247.096813,11.8062292 C247.31304,13.106232 247.434056,14.4202882 247.458896,15.7379167 C247.464938,16.3279167 247.464938,16.9616667 247.464938,17.592375 C247.481396,18.373625 247.481396,19.1172292 247.481396,19.8669375 L247.481396,63.4683333 C247.481396,64.2252083 247.481396,64.96375 247.464938,65.7083333 C247.464938,66.3858333 247.464938,67.0064583 247.456813,67.6452083 C247.43251,68.9393243 247.313512,70.2299255 247.100771,71.5066667 C246.906374,72.7172107 246.526938,73.8906524 245.975771,74.9858333 C245.426652,76.0533774 244.712602,77.0276379 243.859937,77.8727083 C243.008856,78.7347597 242.024435,79.4540473 240.944521,80.0029167 C239.850283,80.5570702 238.678804,80.9432089 237.469521,81.1483333 C236.18177,81.3586687 234.880073,81.4722503 233.575354,81.488125 C232.965146,81.5022917 232.326187,81.5104167 231.705771,81.5104167 L229.447437,81.5145833 L17.5933958,81.5104167 Z" fill="#DC334A"></path>
                </g>
                <g id="_Group_" transform="translate(18.750000, 14.583333)" fill="#FFFFFF">
                    <g id="_Group_2">
                        <g id="_Group_3">
                            <path d="M33.3264792,26.8528125 C33.3738338,23.1774927 35.3006459,19.7826164 38.4318542,17.8575833 C36.4475425,15.0236375 33.2431032,13.2912719 29.7852083,13.1830833 C26.1472083,12.8012083 22.6203542,15.36 20.7664583,15.36 C18.8767292,15.36 16.0224375,13.221 12.9488125,13.2842292 C8.90474818,13.4148855 5.22597911,15.6584319 3.25845833,19.1940208 C-0.931354167,26.4481875 2.193875,37.1094167 6.2074375,42.9731875 C8.21552083,45.8445 10.562375,49.0518125 13.6332292,48.9380833 C16.6382292,48.8134375 17.7605417,47.0218958 21.3878125,47.0218958 C24.9814375,47.0218958 26.034375,48.9380833 29.1675417,48.8657708 C32.3920625,48.8134375 34.423625,45.9817083 36.3612917,43.0832083 C37.8040976,41.0372989 38.9143338,38.7761225 39.650875,36.3834375 C35.8211315,34.7636447 33.3309361,31.0110145 33.3264792,26.8528125 Z" id="_Path_"></path>
                            <path d="M27.4085625,9.3266875 C29.1667104,7.21611502 30.032887,4.50332315 29.8231458,1.76441667 C27.1371115,2.0465311 24.6559677,3.33027969 22.8740833,5.359875 C21.1145521,7.36234603 20.2231784,9.98211549 20.3962917,12.6421667 C23.1183298,12.6701862 25.702846,11.4481983 27.4085625,9.3266875 Z" id="_Path_2"></path>
                        </g>
                    </g>
                    <g id="Group" transform="translate(52.083333, 20.833333)">
                        <path d="M17.295375,21.1242708 L7.434125,21.1242708 L5.06595833,28.116875 L0.889125,28.116875 L10.2295417,2.24604167 L14.569125,2.24604167 L23.9095417,28.116875 L19.6615,28.116875 L17.295375,21.1242708 Z M8.45545833,17.8975417 L16.272125,17.8975417 L12.41875,6.5490625 L12.3108333,6.5490625 L8.45545833,17.8975417 Z" id="Shape"></path>
                        <path d="M44.0816667,18.6869375 C44.0816667,24.5483542 40.9444583,28.3142083 36.2101667,28.3142083 C33.7630526,28.442218 31.458005,27.1604806 30.2755208,25.0142083 L30.1859375,25.0142083 L30.1859375,34.3566667 L26.3142708,34.3566667 L26.3142708,9.25495833 L30.0618333,9.25495833 L30.0618333,12.3921667 L30.1330417,12.3921667 C31.368059,10.2593498 33.6755922,8.97816424 36.1388958,9.05760417 C40.9261458,9.057625 44.0816667,12.8417917 44.0816667,18.6869375 Z M40.1021667,18.6869375 C40.1021667,14.8681875 38.1286875,12.3575833 35.117625,12.3575833 C32.1594583,12.3575833 30.1697083,14.9210625 30.1697083,18.6869375 C30.1697083,22.4873958 32.1594583,25.0325625 35.117625,25.0325625 C38.1287083,25.0325625 40.1020833,22.5402917 40.1020833,18.6869375 L40.1021667,18.6869375 Z" id="Shape"></path>
                        <path d="M64.8427708,18.6869375 C64.8427708,24.5483542 61.7045417,28.3142083 56.97025,28.3142083 C54.523136,28.442218 52.2180883,27.1604806 51.0356042,25.0142083 L50.9460208,25.0142083 L50.9460208,34.3566667 L47.0743542,34.3566667 L47.0743542,9.25495833 L50.8219167,9.25495833 L50.8219167,12.3921667 L50.893125,12.3921667 C52.1281423,10.2593498 54.4356755,8.97816424 56.8989792,9.05760417 C61.68625,9.057625 64.8427708,12.8417917 64.8427708,18.6869375 Z M60.8622708,18.6869375 C60.8622708,14.8681875 58.8887917,12.3575833 55.8777292,12.3575833 C52.9195625,12.3575833 50.9298125,14.9210625 50.9298125,18.6869375 C50.9298125,22.4873958 52.9195625,25.0325625 55.8777292,25.0325625 C58.8887917,25.0325625 60.8622708,22.5402917 60.8622708,18.6869375 L60.8622708,18.6869375 Z" id="Shape"></path>
                        <path d="M78.5614375,20.9086042 C78.8483125,23.474125 81.3406042,25.1586042 84.7463333,25.1586042 C88.0096875,25.1586042 90.3575,23.4740417 90.3575,21.1607917 C90.3575,19.1527292 88.9414792,17.950375 85.588625,17.126375 L82.2357708,16.3186667 C77.4852083,15.1712083 75.2797917,12.9495208 75.2797917,9.344375 C75.2797917,4.88066667 79.1697708,1.81466667 84.6914167,1.81466667 C90.1601667,1.81466667 93.9077292,4.88066667 94.033875,9.344375 L90.1255417,9.344375 C89.8915833,6.76258333 87.757375,5.20416667 84.6384792,5.20416667 C81.5195833,5.20416667 79.3853958,6.78091667 79.3853958,9.07583333 C79.3853958,10.9048542 80.7485208,11.9811042 84.0830625,12.805 L86.9333958,13.504875 C92.2414167,14.7601667 94.4447917,16.892375 94.4447917,20.6765 C94.4447917,25.5165833 90.5914375,28.548 84.459375,28.548 C78.7220625,28.548 74.848375,25.5877917 74.598125,20.9084167 L78.5614375,20.9086042 Z" id="Path"></path>
                        <path d="M102.804604,4.79125 L102.804604,9.25495833 L106.391437,9.25495833 L106.391437,12.3209583 L102.804604,12.3209583 L102.804604,22.7193125 C102.804604,24.3347083 103.522792,25.0874792 105.099521,25.0874792 C105.525336,25.0800541 105.950463,25.0501513 106.373125,24.9978958 L106.373125,28.0455833 C105.664226,28.1780407 104.943689,28.2380302 104.222646,28.224625 C100.403896,28.224625 98.914625,26.7902917 98.914625,23.13225 L98.914625,12.3209583 L96.172125,12.3209583 L96.172125,9.25495833 L98.9145833,9.25495833 L98.9145833,4.79125 L102.804604,4.79125 Z" id="Path"></path>
                        <path d="M108.466667,18.6869375 C108.466667,12.7522917 111.961937,9.02304167 117.412396,9.02304167 C122.881146,9.02304167 126.360146,12.7522083 126.360146,18.6869375 C126.360146,24.637875 122.899458,28.3508333 117.412396,28.3508333 C111.927333,28.3508333 108.466667,24.6378542 108.466667,18.6869375 Z M122.415229,18.6869375 C122.415229,14.6158958 120.549583,12.2131458 117.412375,12.2131458 C114.275167,12.2131458 112.409521,14.6342083 112.409521,18.6869375 C112.409521,22.77425 114.275167,25.1587083 117.412375,25.1587083 C120.549583,25.1587083 122.415208,22.77425 122.415208,18.6869375 L122.415229,18.6869375 Z" id="Shape"></path>
                        <path d="M129.55225,9.25495833 L133.244875,9.25495833 L133.244875,12.465375 L133.334458,12.465375 C133.849408,10.3986842 135.743068,8.97631574 137.871396,9.05758333 C138.317571,9.05602548 138.762515,9.10448072 139.197896,9.20204167 L139.197896,12.8234583 C138.634627,12.6513402 138.047041,12.5723152 137.458313,12.5895 C136.32008,12.5433238 135.218523,12.9969474 134.442878,13.8312624 C133.667233,14.6655775 133.294993,15.7972307 133.423896,16.9290833 L133.423896,28.1168333 L129.552229,28.1168333 L129.55225,9.25495833 Z" id="Path"></path>
                        <path d="M157.048583,22.5768958 C156.52775,26.0009583 153.193187,28.3508125 148.926833,28.3508125 C143.439771,28.3508125 140.034021,24.6744583 140.034021,18.7764375 C140.034021,12.8601042 143.458083,9.02302083 148.764083,9.02302083 C153.982583,9.02302083 157.26425,12.6078125 157.26425,18.3268125 L157.26425,19.6533125 L143.942312,19.6533125 L143.942312,19.8872708 C143.817932,21.2915034 144.302816,22.6814988 145.273625,23.7036874 C146.244434,24.7258759 147.607599,25.281736 149.016375,25.229875 C150.895213,25.4059158 152.66659,24.3270368 153.37225,22.576875 L157.048583,22.5768958 Z M143.960588,16.9474375 L153.390542,16.9474167 C153.460803,15.6856198 153.001493,14.4517148 152.123271,13.5429824 C151.245049,12.63425 150.027543,12.1330842 148.764083,12.1602292 C147.490629,12.1526296 146.266897,12.6540305 145.364887,13.5529859 C144.462876,14.4519414 143.957326,15.6739644 143.960588,16.9474375 L143.960588,16.9474375 Z" id="Shape"></path>
                    </g>
                </g>
            </g>
            <g id="_Group_4" transform="translate(72.916667, 16.666667)" fill="#FFFFFF">
                <g id="Group">
                    <path d="M5.88789583,1.52291667 C7.53153449,1.40496704 9.14144222,2.03030714 10.2745027,3.22681629 C11.4075632,4.42332543 11.9443456,6.06488498 11.7371042,7.69966667 C11.7371042,11.6710208 9.59070833,13.9538333 5.88789583,13.9538333 L1.39775,13.9538333 L1.39775,1.52291667 L5.88789583,1.52291667 Z M3.32847917,12.1958333 L5.67222917,12.1958333 C6.84685822,12.2660458 7.99059692,11.8032479 8.7858719,10.9359412 C9.58114688,10.0686345 9.94329085,8.88915503 9.77175,7.725 C9.93081045,6.56567611 9.56345121,5.39592962 8.77014807,4.53569579 C7.97684493,3.67546197 6.84061598,3.21476312 5.67222917,3.27960417 L3.32847917,3.27960417 L3.32847917,12.1958333 Z" id="Shape"></path>
                    <path d="M13.9180833,9.25904167 C13.7572232,7.57755219 14.5635076,5.9502332 15.9987832,5.05957785 C17.4340587,4.1689225 19.2501704,4.1689225 20.685446,5.05957785 C22.1207215,5.9502332 22.927006,7.57755219 22.7661458,9.25904167 C22.9300665,10.942338 22.124518,12.5728133 20.6879699,13.465386 C19.2514217,14.3579588 17.4328074,14.3579588 15.9962593,13.465386 C14.5597111,12.5728133 13.7541626,10.942338 13.9180833,9.25904167 Z M20.8618333,9.25904167 C20.8618333,7.2255625 19.9483333,6.03639583 18.3451667,6.03639583 C16.735875,6.03639583 15.8305833,7.2255625 15.8305833,9.2590625 C15.8305833,11.3088333 16.7359375,12.4888333 18.3451667,12.4888333 C19.948375,12.4888125 20.8618542,11.3006667 20.8618542,9.25904167 L20.8618333,9.25904167 Z" id="Shape"></path>
                    <polygon id="Path" points="34.527625 13.9536458 32.6070625 13.9536458 30.6681875 7.04445833 30.5217083 7.04445833 28.5909583 13.9536458 26.6886875 13.9536458 24.1028333 4.57254167 25.9806875 4.57254167 27.6611875 11.730875 27.7995417 11.730875 29.72825 4.57254167 31.504375 4.57254167 33.4330833 11.730875 33.5795625 11.730875 35.2519167 4.57254167 37.1033125 4.57254167"></polygon>
                    <path d="M39.2782083,4.57254167 L41.0604167,4.57254167 L41.0604167,6.0628125 L41.1987708,6.0628125 C41.6798851,4.96557904 42.8041101,4.29439057 43.99825,4.39145833 C44.9228683,4.32194119 45.8289289,4.67664563 46.4606058,5.35542098 C47.0922827,6.03419633 47.3810272,6.96338283 47.2453125,7.880625 L47.2453125,13.9535417 L45.3939167,13.9535417 L45.3939167,8.34554167 C45.3939167,6.83797917 44.7388125,6.08825 43.3695833,6.08825 C42.7424288,6.05903983 42.133792,6.30517202 41.7032388,6.7621183 C41.2726855,7.21906458 41.0631563,7.84125211 41.1295833,8.4655625 L41.1295833,13.9536458 L39.2781875,13.9536458 L39.2782083,4.57254167 Z" id="Path"></path>
                    <polygon id="Path" points="50.1953542 0.910416667 52.04675 0.910416667 52.04675 13.953625 50.1953542 13.953625"></polygon>
                    <path d="M54.6203958,9.25904167 C54.4596592,7.57744218 55.2660708,5.95008201 56.7014529,5.05941292 C58.136835,4.16874384 59.95304,4.16874384 61.3884221,5.05941292 C62.8238042,5.95008201 63.6302158,7.57744218 63.4694792,9.25904167 C63.6331917,10.9423983 62.8274956,12.5728275 61.3908761,13.4653609 C59.9542567,14.3578944 58.1356183,14.3578944 56.6989989,13.4653609 C55.2623794,12.5728275 54.4566833,10.9423983 54.6203958,9.25904167 L54.6203958,9.25904167 Z M61.5641458,9.25904167 C61.5641458,7.2255625 60.6506458,6.03639583 59.0474792,6.03639583 C57.4381875,6.03639583 56.5328958,7.2255625 56.5328958,9.2590625 C56.5328958,11.3088333 57.43825,12.4888333 59.0474792,12.4888333 C60.6506667,12.4888125 61.5641667,11.3006667 61.5641667,9.25904167 L61.5641458,9.25904167 Z" id="Shape"></path>
                    <path d="M65.4185417,11.3006667 C65.4185417,9.61202083 66.675875,8.63852083 68.9077083,8.50016667 L71.4488125,8.3536875 L71.4488125,7.54395833 C71.4488125,6.55314583 70.7937083,5.99366667 69.52825,5.99366667 C68.4947292,5.99366667 67.7785833,6.37310417 67.5730833,7.03635417 L65.7806875,7.03635417 C65.9698958,5.42502083 67.4856042,4.3915 69.6136875,4.3915 C71.9655833,4.3915 73.2920833,5.56233333 73.2920833,7.54395833 L73.2920833,13.9536667 L71.5098542,13.9536667 L71.5098542,12.6353125 L71.363375,12.6353125 C70.7580596,13.5980757 69.6816118,14.1607567 68.5455833,14.1082292 C67.7492003,14.1910663 66.9549399,13.9331472 66.3591579,13.3982343 C65.763376,12.8633213 65.4216793,12.1013402 65.4185417,11.3006667 L65.4185417,11.3006667 Z M71.4488125,10.4990625 L71.4488125,9.71477083 L69.1579583,9.86125 C67.8660417,9.94770833 67.2801042,10.3871667 67.2801042,11.2141875 C67.2801042,12.0585 68.0125208,12.5498333 69.0196875,12.5498333 C69.6159085,12.6101872 70.2110966,12.4259897 70.6690008,12.0394075 C71.126905,11.6528253 71.4083158,11.0969605 71.4488125,10.4990625 Z" id="Shape"></path>
                    <path d="M75.7253333,9.25904167 C75.7253333,6.29477083 77.2491875,4.41691667 79.619375,4.41691667 C80.8162016,4.36177111 81.9371407,5.00306847 82.4961667,6.06275 L82.6345208,6.06275 L82.6345208,0.910416667 L84.4859167,0.910416667 L84.4859167,13.953625 L82.7118333,13.953625 L82.7118333,12.4714792 L82.5653542,12.4714792 C81.9640712,13.5223687 80.8293219,14.152826 79.6193958,14.1082292 C77.2329167,14.1083333 75.7253333,12.2304375 75.7253333,9.25904167 Z M77.6378333,9.25904167 C77.6378333,11.2487917 78.57575,12.4461042 80.1443542,12.4461042 C81.7047708,12.4461042 82.6691667,11.2315208 82.6691667,9.2671875 C82.6691667,7.31202083 81.6946458,6.080125 80.1443542,6.080125 C78.5858542,6.080125 77.6377708,7.2855625 77.6377708,9.25904167 L77.6378333,9.25904167 Z" id="Shape"></path>
                    <path d="M92.1458333,9.25904167 C91.9849732,7.57755219 92.7912576,5.9502332 94.2265332,5.05957785 C95.6618087,4.1689225 97.4779204,4.1689225 98.913196,5.05957785 C100.348472,5.9502332 101.154756,7.57755219 100.993896,9.25904167 C101.157817,10.942338 100.352268,12.5728133 98.9157199,13.465386 C97.4791717,14.3579588 95.6605574,14.3579588 94.2240093,13.465386 C92.7874611,12.5728133 91.9819126,10.942338 92.1458333,9.25904167 L92.1458333,9.25904167 Z M99.0895833,9.25904167 C99.0895833,7.2255625 98.1760833,6.03639583 96.5729167,6.03639583 C94.963625,6.03639583 94.0583333,7.2255625 94.0583333,9.2590625 C94.0583333,11.3088333 94.9636875,12.4888333 96.5729167,12.4888333 C98.1761042,12.4888125 99.0895833,11.3006667 99.0895833,9.25904167 Z" id="Shape"></path>
                    <path d="M103.478021,4.57254167 L105.26025,4.57254167 L105.26025,6.0628125 L105.398604,6.0628125 C105.879718,4.96557904 107.003943,4.29439057 108.198083,4.39145833 C109.122702,4.32194119 110.028762,4.67664563 110.660439,5.35542098 C111.292116,6.03419633 111.580861,6.96338283 111.445146,7.880625 L111.445146,13.9535417 L109.59375,13.9535417 L109.59375,8.34554167 C109.59375,6.83797917 108.938646,6.08825 107.569417,6.08825 C106.942262,6.05903983 106.333625,6.30517202 105.903072,6.7621183 C105.472519,7.21906458 105.26299,7.84125211 105.329417,8.4655625 L105.329417,13.9536458 L103.478021,13.9536458 L103.478021,4.57254167 Z" id="Path"></path>
                    <path d="M121.906583,2.2369375 L121.906583,4.61527083 L123.939063,4.61527083 L123.939063,6.17472917 L121.906583,6.17472917 L121.906583,10.9985417 C121.906583,11.9812083 122.311458,12.4115 123.233083,12.4115 C123.469032,12.4107449 123.704745,12.3964785 123.939063,12.3687708 L123.939063,13.9109167 C123.606582,13.9703973 123.26972,14.0020418 122.931979,14.0055208 C120.873062,14.0055208 120.053146,13.2812292 120.053146,11.4725625 L120.053146,6.17464583 L118.563896,6.17464583 L118.563896,4.6151875 L120.053146,4.6151875 L120.053146,2.2369375 L121.906583,2.2369375 Z" id="Path"></path>
                    <path d="M126.467938,0.910416667 L128.303063,0.910416667 L128.303063,6.08010417 L128.449542,6.08010417 C128.953766,4.97326783 130.097667,4.30122405 131.309958,4.39960417 C132.229326,4.34957767 133.123122,4.71209107 133.747894,5.38840386 C134.372667,6.06471666 134.663344,6.98438674 134.54075,7.89691667 L134.54075,13.9536458 L132.6875,13.9536458 L132.6875,8.35364583 C132.6875,6.85522917 131.989583,6.09635417 130.681479,6.09635417 C130.037373,6.04352848 129.40279,6.2776895 128.94738,6.73623646 C128.49197,7.19478343 128.262171,7.83095898 128.319417,8.4746875 L128.319417,13.9536042 L126.468021,13.9536042 L126.467938,0.910416667 Z" id="Path"></path>
                    <path d="M145.335938,11.4206875 C144.816785,13.1902281 143.104373,14.333548 141.271,14.1347083 C140.020092,14.1677296 138.817899,13.6492306 137.983392,12.7167816 C137.148886,11.7843326 136.76643,10.5321999 136.9375,9.29260417 C136.770974,8.04956349 137.151996,6.79542444 137.981856,5.85509782 C138.811716,4.9147712 140.008754,4.3807849 141.262854,4.39147917 C143.873125,4.39147917 145.447833,6.1748125 145.447833,9.12064583 L145.447833,9.76666667 L138.823479,9.76666667 L138.823479,9.87041667 C138.764858,10.566542 139.002606,11.2550995 139.478252,11.7667515 C139.953898,12.2784034 140.623308,12.5656748 141.321854,12.5579167 C142.227629,12.6666556 143.109339,12.2173605 143.553708,11.420625 L145.335938,11.4206875 Z M138.823438,8.39741667 L143.561792,8.39741667 C143.608985,7.76075091 143.385122,7.13376057 142.945369,6.67095644 C142.505615,6.20815232 141.89087,5.95257547 141.252625,5.96720833 C140.605733,5.95908107 139.982975,6.21254424 139.525617,6.67010184 C139.06826,7.12765943 138.815069,7.75052861 138.823479,8.39741667 L138.823438,8.39741667 Z" id="Shape"></path>
                </g>
            </g>
        </g>
    </g>
</svg>